<svg width="128" height="46" viewBox="0 0 128 46" fill="none" xmlns="http://www.w3.org/2000/svg">
<g id="Group">
<g id="Group_2">
<path id="Vector" d="M64.1821 18.6823C65.2161 20.192 65.7323 22.305 65.7323 25.0198C65.7323 26.681 65.4742 28.1607 64.9565 29.4573C64.4403 30.754 63.6989 31.767 62.7369 32.4978C61.7735 33.2272 60.6345 33.5918 59.3168 33.5918C58.4449 33.5918 57.6496 33.4087 56.9307 33.044C56.2104 32.6793 55.5981 32.1721 55.0924 31.5238L54.9513 32.4212C54.8928 32.7979 54.5686 33.0741 54.1874 33.0741H51.3661C50.9384 33.0741 50.5933 32.7274 50.5933 32.3012V10.5019C50.5933 10.0742 50.9399 9.729 51.3676 9.729L54.6241 9.73201C55.0503 9.73201 55.397 10.0787 55.397 10.5049V18.5742C55.8832 17.9049 56.506 17.3781 57.2669 16.994C58.0262 16.6098 58.8531 16.4162 59.7446 16.4162C61.67 16.4162 63.1496 17.171 64.1821 18.6807V18.6823ZM60.747 25.0198C60.747 23.0944 60.5234 21.7677 60.0777 21.0369C59.632 20.3075 58.9837 19.9428 58.1328 19.9428C57.0583 19.9428 56.1458 20.5717 55.397 21.8277V28.5464C55.7016 29.0327 56.0708 29.4124 56.506 29.687C56.9412 29.9601 57.4124 30.0967 57.9197 30.0967C59.8046 30.0967 60.747 28.4054 60.747 25.0198Z" fill="white"/>
<path id="Vector_2" d="M78.9883 17.4176L78.4765 20.5465C78.409 20.9637 78.0173 21.2549 77.5986 21.1889C77.3255 21.1453 77.0884 21.1243 76.8873 21.1243C75.9344 21.1243 75.211 21.4545 74.7143 22.1118C74.2176 22.7706 73.8273 23.7581 73.5437 25.0757V32.2971C73.5437 32.7248 73.1971 33.07 72.7709 33.07H69.5144C69.0867 33.07 68.7415 32.7233 68.7415 32.2971V17.7027C68.7415 17.275 69.0882 16.9299 69.5144 16.9299H72.2546C72.6448 16.9299 72.9734 17.2195 73.0215 17.6066L73.3306 20.0618C73.6953 18.9483 74.2476 18.0703 74.9874 17.4325C75.7272 16.7947 76.5631 16.4751 77.4951 16.4751C77.7847 16.4751 78.0608 16.4916 78.3265 16.5261C78.7617 16.5831 79.0588 16.9853 78.9868 17.4191L78.9883 17.4176Z" fill="white"/>
<path id="Vector_3" d="M79.7342 33.9157C81.4341 33.9157 82.8121 32.5377 82.8121 30.8378C82.8121 29.1379 81.4341 27.7598 79.7342 27.7598C78.0343 27.7598 76.6562 29.1379 76.6562 30.8378C76.6562 32.5377 78.0343 33.9157 79.7342 33.9157Z" fill="white"/>
</g>
<g id="Group_3">
<path id="Vector_4" d="M90.5987 16.9316H85.7949V33.0732H90.5987V16.9316Z" fill="white"/>
<path id="Vector_5" d="M108.804 16.9316H104.58V22.951L105.309 29.5721L100.385 16.9316H94.4561V33.0732H98.682V27.4126L97.9527 21.0961L102.806 33.0732H108.804V16.9316Z" fill="white"/>
<path id="Vector_6" d="M125.462 18.6777C126.861 20.1874 127.56 22.3004 127.56 25.0152C127.56 26.738 127.241 28.2432 126.603 29.5294C125.965 30.817 125.053 31.8149 123.867 32.5232C122.681 33.2331 121.278 33.5873 119.657 33.5873C117.205 33.5873 115.275 32.8324 113.866 31.3227C112.457 29.8129 111.753 27.6999 111.753 24.9852C111.753 23.2623 112.073 21.7586 112.711 20.471C113.349 19.1849 114.261 18.187 115.447 17.4771C116.632 16.7673 118.035 16.4131 119.657 16.4131C122.129 16.4131 124.065 17.168 125.464 18.6777H125.462Z" fill="white"/>
<path id="Vector_7" d="M90.8225 9.729H85.567V14.5328H90.8225V9.729Z" fill="white"/>
</g>
<path id="Vector_8" d="M25.3526 31.3221L16.824 43.0772L2.40225 22.9992L16.824 2.92116L25.3465 14.6852L26.8233 12.6308L18.7689 1.51197C18.3172 0.887673 17.5939 0.52002 16.824 0.52002H16.8196C16.0482 0.52152 15.3233 0.893685 14.8731 1.52098L0.451337 21.599C-0.150446 22.4364 -0.150446 23.5634 0.451337 24.4008L14.8731 44.4788C15.3233 45.1046 16.0467 45.4768 16.818 45.4798H16.824C17.5939 45.4798 18.3158 45.1107 18.7675 44.4894L26.8292 33.3781L25.3526 31.3236V31.3221Z" fill="white"/>
<path id="Vector_9" d="M31.3824 6.29004L19.3723 23.0065L31.3824 39.7229L43.5036 22.8504L31.3824 6.29004Z" fill="white"/>
</g>
</svg>
